<svg width="167" height="34" viewBox="0 0 167 34" fill="none" xmlns="http://www.w3.org/2000/svg">
<path d="M19.1055 4.39564L4.49037 19.0108C2.76484 20.7363 3.98693 23.6867 6.42719 23.6867H21.0424C22.5551 23.6867 23.7814 22.4604 23.7814 20.9476V6.33246C23.7814 3.8922 20.8311 2.67012 19.1055 4.39564Z" fill="#F4F1D2"/>
<path d="M25.2685 11.2434L10.6533 25.8585C8.92778 27.584 10.1499 30.5344 12.5901 30.5344H27.2053C28.7181 30.5344 29.9444 29.3081 29.9444 27.7953V13.1802C29.9444 10.7399 26.994 9.51782 25.2685 11.2434Z" fill="#FFE500"/>
<path d="M64.3268 15.9833H60.9875V31.0829H54.7807V15.9833H52.5303V10.8291H54.7807V10.2484C54.7807 7.75596 55.4945 5.86851 56.9222 4.58602C58.3499 3.27932 60.443 2.62598 63.2016 2.62598C63.6614 2.62598 64.0001 2.63808 64.2179 2.66227V7.92535C63.0322 7.85275 62.1974 8.02214 61.7134 8.43351C61.2295 8.84487 60.9875 9.58291 60.9875 10.6476V10.8291H64.3268V15.9833Z" fill="white"/>
<path d="M73.4501 4.22305V31.0829H67.2433V4.22305H73.4501Z" fill="white"/>
<path d="M76.714 20.9197C76.714 18.8387 77.1012 17.0117 77.8755 15.4388C78.6741 13.866 79.7509 12.6561 81.106 11.8091C82.4611 10.9622 83.9734 10.5387 85.6431 10.5387C87.0708 10.5387 88.317 10.8291 89.3817 11.4099C90.4706 11.9906 91.3054 12.7529 91.8862 13.6966V10.8291H98.093V31.0829H91.8862V28.2154C91.2812 29.1591 90.4343 29.9214 89.3454 30.5021C88.2807 31.0829 87.0345 31.3732 85.6068 31.3732C83.9613 31.3732 82.4611 30.9498 81.106 30.1028C79.7509 29.2317 78.6741 28.0097 77.8755 26.4368C77.1012 24.8398 76.714 23.0007 76.714 20.9197ZM91.8862 20.956C91.8862 19.4073 91.4506 18.1853 90.5795 17.29C89.7326 16.3947 88.6921 15.947 87.458 15.947C86.2239 15.947 85.1712 16.3947 84.3001 17.29C83.4532 18.1611 83.0297 19.371 83.0297 20.9197C83.0297 22.4684 83.4532 23.7025 84.3001 24.622C85.1712 25.5173 86.2239 25.965 87.458 25.965C88.6921 25.965 89.7326 25.5173 90.5795 24.622C91.4506 23.7267 91.8862 22.5047 91.8862 20.956Z" fill="white"/>
<path d="M113.872 25.8198V31.0829H110.714C108.463 31.0829 106.709 30.5384 105.451 29.4495C104.193 28.3364 103.563 26.5336 103.563 24.0412V15.9833H101.095V10.8291H103.563V5.89271H109.77V10.8291H113.835V15.9833H109.77V24.1138C109.77 24.7188 109.915 25.1543 110.206 25.4205C110.496 25.6867 110.98 25.8198 111.658 25.8198H113.872Z" fill="white"/>
<path d="M128.617 25.8198V31.0829H125.46C123.209 31.0829 121.455 30.5384 120.196 29.4495C118.938 28.3364 118.309 26.5336 118.309 24.0412V15.9833H115.841V10.8291H118.309V5.89271H124.516V10.8291H128.581V15.9833H124.516V24.1138C124.516 24.7188 124.661 25.1543 124.951 25.4205C125.242 25.6867 125.726 25.8198 126.403 25.8198H128.617Z" fill="white"/>
<path d="M151.167 20.6293C151.167 21.2101 151.131 21.815 151.058 22.4442H137.011C137.108 23.7025 137.507 24.6704 138.209 25.3479C138.935 26.0013 139.818 26.328 140.859 26.328C142.407 26.328 143.484 25.6746 144.089 24.3679H150.695C150.356 25.6988 149.739 26.8966 148.844 27.9613C147.973 29.026 146.872 29.8609 145.541 30.4658C144.21 31.0708 142.722 31.3732 141.076 31.3732C139.092 31.3732 137.326 30.9498 135.777 30.1028C134.228 29.2559 133.018 28.046 132.147 26.4731C131.276 24.9003 130.841 23.0612 130.841 20.956C130.841 18.8508 131.264 17.0117 132.111 15.4388C132.982 13.866 134.192 12.6561 135.741 11.8091C137.289 10.9622 139.068 10.5387 141.076 10.5387C143.036 10.5387 144.779 10.9501 146.303 11.7728C147.828 12.5956 149.013 13.7692 149.86 15.2936C150.731 16.8181 151.167 18.5967 151.167 20.6293ZM144.815 18.9959C144.815 17.9312 144.452 17.0843 143.726 16.4552C143 15.826 142.093 15.5114 141.004 15.5114C139.963 15.5114 139.08 15.8139 138.354 16.4189C137.652 17.0238 137.217 17.8828 137.047 18.9959H144.815Z" fill="white"/>
<path d="M160.648 14.2047C161.374 13.0916 162.281 12.2205 163.37 11.5913C164.459 10.938 165.669 10.6113 167 10.6113V17.1811H165.294C163.745 17.1811 162.584 17.5199 161.81 18.1974C161.035 18.8508 160.648 20.0123 160.648 21.6819V31.0829H154.441V10.8291H160.648V14.2047Z" fill="white"/>
</svg>
